<?xml version="1.0" encoding="UTF-8"?><svg id="uuid-a88bf437-1c8d-4b2a-a086-7c008517e234" xmlns="http://www.w3.org/2000/svg" viewBox="0 0 210.57 226.77"><path d="M210.57,210.57c0,8.86-7.34,16.2-16.2,16.2H16.2c-8.86,0-16.2-7.34-16.2-16.2V48.59c0-8.86,7.34-16.2,16.2-16.2h16.2v-12.15C32.4,9.11,41.51,0,52.64,0h8.1c11.14,0,20.25,9.11,20.25,20.25v12.15h48.59v-12.15c0-11.14,9.11-20.25,20.25-20.25h8.1c11.14,0,20.25,9.11,20.25,20.25v12.15h16.2c8.86,0,16.2,7.34,16.2,16.2V210.57ZM52.64,117.44v-36.45H16.2v36.45H52.64Zm0,48.59v-40.5H16.2v40.5H52.64Zm0,44.54v-36.45H16.2v36.45H52.64ZM64.79,20.25c0-2.15-1.9-4.05-4.05-4.05h-8.1c-2.15,0-4.05,1.9-4.05,4.05V56.69c0,2.15,1.9,4.05,4.05,4.05h8.1c2.15,0,4.05-1.9,4.05-4.05V20.25Zm36.45,97.19v-36.45H60.74v36.45h40.5Zm0,48.59v-40.5H60.74v40.5h40.5Zm0,44.54v-36.45H60.74v36.45h40.5Zm48.59-93.14v-36.45h-40.49v36.45h40.49Zm0,48.59v-40.5h-40.49v40.5h40.49Zm0,44.54v-36.45h-40.49v36.45h40.49Zm12.15-190.33c0-2.15-1.9-4.05-4.05-4.05h-8.1c-2.15,0-4.05,1.9-4.05,4.05V56.69c0,2.15,1.9,4.05,4.05,4.05h8.1c2.15,0,4.05-1.9,4.05-4.05V20.25Zm32.4,97.19v-36.45h-36.45v36.45h36.45Zm0,48.59v-40.5h-36.45v40.5h36.45Zm0,44.54v-36.45h-36.45v36.45h36.45Z" fill="#666"/></svg>